<svg id="audio_guide" xmlns="http://www.w3.org/2000/svg" xmlns:xlink="http://www.w3.org/1999/xlink" width="18.289" height="18.096" viewBox="0 0 18.289 18.096">
  <defs>
    <clipPath id="clip-path">
      <rect id="사각형_330" data-name="사각형 330" width="18.289" height="18.096" fill="none" stroke="#676767" stroke-width="1"/>
    </clipPath>
  </defs>
  <g id="그룹_170" data-name="그룹 170" clip-path="url(#clip-path)">
    <path id="패스_14673" data-name="패스 14673" d="M6.949,16.39a.689.689,0,0,1-.21.863,2.554,2.554,0,0,1-1.334.485.689.689,0,0,1-.639-.341,20.572,20.572,0,0,1-2.334-5.846.694.694,0,0,1,.226-.683A2.448,2.448,0,0,1,3.968,10.3a.69.69,0,0,1,.739.481c.328,1.06.73,2.192,1.222,3.375.331.794.674,1.539,1.019,2.238" transform="translate(-0.155 -0.661)" fill="#676767"/>
    <path id="패스_14674" data-name="패스 14674" d="M12.476,16.39a.686.686,0,0,0,.21.863,2.56,2.56,0,0,0,.521.294,2.589,2.589,0,0,0,.811.191.69.69,0,0,0,.64-.341,20.67,20.67,0,0,0,1.226-2.432,20.445,20.445,0,0,0,1.107-3.414.694.694,0,0,0-.226-.683,2.448,2.448,0,0,0-1.309-.571.692.692,0,0,0-.739.481c-.328,1.06-.73,2.192-1.222,3.375-.331.794-.674,1.539-1.018,2.238" transform="translate(-0.796 -0.661)" fill="#676767"/>
    <path id="패스_14675" data-name="패스 14675" d="M3.571,18.748l-.017.007a.891.891,0,0,1-1.11-.386A24.236,24.236,0,0,1,.028,12.4a.891.891,0,0,1,.529-1.048l.017-.007a.891.891,0,0,1,1.194.589A26.161,26.161,0,0,0,2.7,14.7a26.425,26.425,0,0,0,1.318,2.8.892.892,0,0,1-.448,1.252" transform="translate(0 -0.724)" fill="#676767"/>
    <path id="패스_14676" data-name="패스 14676" d="M15.689,18.748l.017.007a.891.891,0,0,0,1.11-.386,24.271,24.271,0,0,0,1.455-3.022,24.215,24.215,0,0,0,.961-2.943.891.891,0,0,0-.529-1.048l-.017-.007a.891.891,0,0,0-1.194.589,26.162,26.162,0,0,1-.934,2.762,26.425,26.425,0,0,1-1.318,2.8.892.892,0,0,0,.448,1.252" transform="translate(-0.971 -0.724)" fill="#676767"/>
    <path id="패스_14677" data-name="패스 14677" d="M18.642,9.3a9.932,9.932,0,0,1,.033,2.717" transform="translate(-1.196 -0.597)" fill="none" stroke="#676767" stroke-miterlimit="10" stroke-width="0.692"/>
    <path id="패스_14678" data-name="패스 14678" d="M.968,12.247a9.927,9.927,0,0,1,0-2.947" transform="translate(-0.055 -0.597)" fill="none" stroke="#676767" stroke-miterlimit="10" stroke-width="0.692"/>
    <path id="패스_14679" data-name="패스 14679" d="M.884,9.093a8.376,8.376,0,0,1,16.752,0" transform="translate(-0.057 -0.046)" fill="none" stroke="#676767" stroke-linecap="round" stroke-linejoin="round" stroke-width="1.434"/>
  </g>
</svg>
