<svg id="facebook" xmlns="http://www.w3.org/2000/svg" width="48.71" height="48" viewBox="0 0 48.71 48">
  <defs>
    <style>
      .cls-1 {
        fill: #121214;
      }

      .cls-2 {
        fill: #fff;
      }
    </style>
  </defs>
  <path id="패스_14688" data-name="패스 14688" class="cls-1" d="M230.356,360.189a24.179,24.179,0,0,1-24.355,24h0a24.179,24.179,0,0,1-24.355-24h0a24.179,24.179,0,0,1,24.355-24h0a24.179,24.179,0,0,1,24.355,24Z" transform="translate(-181.646 -336.189)"/>
  <path id="패스_14689" data-name="패스 14689" class="cls-2" d="M318.171,417.991l-.406,3.186a1.078,1.078,0,0,1-1.076.933h-5.277V435.43q-.836.074-1.691.074a19.244,19.244,0,0,1-3.722-.362V422.11h-4.059a.672.672,0,0,1-.677-.664v-3.986a.672.672,0,0,1,.677-.664H306v-5.979a6.705,6.705,0,0,1,6.766-6.643H317.5a.672.672,0,0,1,.677.664v3.986a.672.672,0,0,1-.677.664h-3.383a2.682,2.682,0,0,0-2.706,2.658v4.65H317.1A1.072,1.072,0,0,1,318.171,417.991Z" transform="translate(-286.601 -395.839)"/>
</svg>
