<svg id="twiter" xmlns="http://www.w3.org/2000/svg" width="48.71" height="48" viewBox="0 0 48.71 48">
  <defs>
    <style>
      .cls-1 {
        fill: #121214;
      }

      .cls-2 {
        fill: #fff;
      }
    </style>
  </defs>
  <path id="패스_14695" data-name="패스 14695" class="cls-1" d="M710.348,360.189a24.179,24.179,0,0,1-24.355,24h0a24.179,24.179,0,0,1-24.355-24h0a24.179,24.179,0,0,1,24.355-24h0a24.179,24.179,0,0,1,24.355,24Z" transform="translate(-661.638 -336.189)"/>
  <path id="패스_14696" data-name="패스 14696" class="cls-2" d="M761.747,440.9l9.852-10.245h-3.741l-7.733,8.041-5.922-8.041H743.97l10.359,14.068L743.97,455.492h3.742l8.24-8.569,6.31,8.569h10.233Zm-12.5-7.61h3.568l14.412,19.571h-3.568Z" transform="translate(-733.877 -419.072)"/>
</svg>
