<svg width="80" height="80" viewBox="0 0 80 80" fill="none" xmlns="http://www.w3.org/2000/svg">
<path d="M77.2857 22.2856V32.2856H72.2857V69.7856C72.2857 70.6711 72.2466 71.5565 72.1685 72.4419C72.0904 73.3273 71.8821 74.1346 71.5435 74.8638C71.205 75.5929 70.7102 76.1789 70.0591 76.6216C69.4081 77.0643 68.4836 77.2856 67.2857 77.2856C66.6347 77.2856 65.9446 77.2987 65.2154 77.3247C64.4862 77.3507 63.744 77.3377 62.9888 77.2856C62.2336 77.2336 61.5175 77.1294 60.8404 76.9731C60.1633 76.8169 59.5513 76.5434 59.0045 76.1528C58.4576 75.7622 58.0409 75.2674 57.7545 74.6684C57.468 74.0695 57.3117 73.2752 57.2857 72.2856H22.2857C22.2857 72.9888 22.1555 73.6398 21.8951 74.2388C21.6347 74.8377 21.2831 75.3586 20.8404 75.8013C20.3977 76.244 19.8638 76.6086 19.2388 76.895C18.6138 77.1815 17.9628 77.3117 17.2857 77.2856C15.4888 77.2856 13.9524 77.2726 12.6763 77.2466C11.4003 77.2205 10.3716 76.9992 9.59039 76.5825C8.80914 76.1658 8.22321 75.4367 7.83258 74.395C7.44196 73.3533 7.25966 71.8169 7.28571 69.7856V32.2856H2.28571V22.2856H7.28571V9.78564C7.28571 8.74398 7.48102 7.76742 7.87164 6.85596C8.26227 5.9445 8.79612 5.15023 9.47321 4.47314C10.1503 3.79606 10.9446 3.26221 11.856 2.87158C12.7675 2.48096 13.744 2.28564 14.7857 2.28564H64.7857C65.8274 2.28564 66.8039 2.48096 67.7154 2.87158C68.6269 3.26221 69.4211 3.79606 70.0982 4.47314C70.7753 5.15023 71.3091 5.9445 71.6998 6.85596C72.0904 7.76742 72.2857 8.74398 72.2857 9.78564V22.2856H77.2857ZM67.2857 47.2856H12.2857V57.2856H17.2857V55.7231C17.2857 55.1502 17.3378 54.6033 17.442 54.0825C17.5461 53.5617 17.7805 53.132 18.1451 52.7935C18.5097 52.4549 19.0565 52.2856 19.7857 52.2856C20.5149 52.2856 21.0487 52.4549 21.3873 52.7935C21.7258 53.132 21.9732 53.5487 22.1295 54.0435C22.2857 54.5382 22.3508 55.0851 22.3248 55.6841C22.2987 56.283 22.2857 56.8169 22.2857 57.2856H57.2857V55.7231C57.2857 55.1502 57.3378 54.6033 57.442 54.0825C57.5461 53.5617 57.7805 53.132 58.1451 52.7935C58.5097 52.4549 59.0565 52.2856 59.7857 52.2856C60.5149 52.2856 61.0487 52.4549 61.3873 52.7935C61.7258 53.132 61.9732 53.5487 62.1295 54.0435C62.2857 54.5382 62.3508 55.0851 62.3248 55.6841C62.2987 56.283 62.2857 56.8169 62.2857 57.2856H67.2857V47.2856ZM37.2857 42.2856V22.2856H12.2857V42.2856H37.2857ZM67.2857 22.2856H42.2857V42.2856H67.2857V22.2856ZM14.7857 7.28564C14.1086 7.28564 13.5227 7.53304 13.0279 8.02783C12.5331 8.52262 12.2857 9.10856 12.2857 9.78564V17.2856H67.2857V9.78564C67.2857 9.10856 67.0383 8.52262 66.5435 8.02783C66.0487 7.53304 65.4628 7.28564 64.7857 7.28564H14.7857ZM67.2857 67.2856V62.2856H12.2857V67.2856H67.2857Z" fill="#FAFAFA"/>
</svg>
