<svg width="80" height="80" viewBox="0 0 80 80" fill="none" xmlns="http://www.w3.org/2000/svg">
<path d="M77.2856 22.2856V32.2856H72.2856V69.7856C72.2856 70.6711 72.2466 71.5565 72.1685 72.4419C72.0903 73.3273 71.882 74.1346 71.5435 74.8638C71.2049 75.5929 70.7101 76.1789 70.0591 76.6216C69.408 77.0643 68.4836 77.2856 67.2856 77.2856C66.6346 77.2856 65.9445 77.2987 65.2153 77.3247C64.4862 77.3507 63.744 77.3377 62.9888 77.2856C62.2336 77.2336 61.5174 77.1294 60.8403 76.9731C60.1632 76.8169 59.5513 76.5434 59.0044 76.1528C58.4575 75.7622 58.0409 75.2674 57.7544 74.6684C57.4679 74.0695 57.3117 73.2752 57.2856 72.2856H22.2856C22.2856 72.9888 22.1554 73.6398 21.895 74.2388C21.6346 74.8377 21.283 75.3586 20.8403 75.8013C20.3976 76.244 19.8638 76.6086 19.2388 76.895C18.6138 77.1815 17.9627 77.3117 17.2856 77.2856C15.4888 77.2856 13.9523 77.2726 12.6763 77.2466C11.4002 77.2205 10.3716 76.9992 9.59033 76.5825C8.80908 76.1658 8.22314 75.4367 7.83252 74.395C7.44189 73.3533 7.2596 71.8169 7.28564 69.7856V32.2856H2.28564V22.2856H7.28564V9.78564C7.28564 8.74398 7.48096 7.76742 7.87158 6.85596C8.26221 5.9445 8.79606 5.15023 9.47314 4.47314C10.1502 3.79606 10.9445 3.26221 11.856 2.87158C12.7674 2.48096 13.744 2.28564 14.7856 2.28564H64.7856C65.8273 2.28564 66.8039 2.48096 67.7153 2.87158C68.6268 3.26221 69.4211 3.79606 70.0981 4.47314C70.7752 5.15023 71.3091 5.9445 71.6997 6.85596C72.0903 7.76742 72.2856 8.74398 72.2856 9.78564V22.2856H77.2856ZM67.2856 47.2856H12.2856V57.2856H17.2856V55.7231C17.2856 55.1502 17.3377 54.6033 17.4419 54.0825C17.5461 53.5617 17.7804 53.132 18.145 52.7935C18.5096 52.4549 19.0565 52.2856 19.7856 52.2856C20.5148 52.2856 21.0487 52.4549 21.3872 52.7935C21.7257 53.132 21.9731 53.5487 22.1294 54.0435C22.2856 54.5382 22.3507 55.0851 22.3247 55.6841C22.2987 56.283 22.2856 56.8169 22.2856 57.2856H57.2856V55.7231C57.2856 55.1502 57.3377 54.6033 57.4419 54.0825C57.5461 53.5617 57.7804 53.132 58.145 52.7935C58.5096 52.4549 59.0565 52.2856 59.7856 52.2856C60.5148 52.2856 61.0487 52.4549 61.3872 52.7935C61.7257 53.132 61.9731 53.5487 62.1294 54.0435C62.2856 54.5382 62.3507 55.0851 62.3247 55.6841C62.2987 56.283 62.2856 56.8169 62.2856 57.2856H67.2856V47.2856ZM37.2856 42.2856V22.2856H12.2856V42.2856H37.2856ZM67.2856 22.2856H42.2856V42.2856H67.2856V22.2856ZM14.7856 7.28564C14.1086 7.28564 13.5226 7.53304 13.0278 8.02783C12.533 8.52262 12.2856 9.10856 12.2856 9.78564V17.2856H67.2856V9.78564C67.2856 9.10856 67.0382 8.52262 66.5435 8.02783C66.0487 7.53304 65.4627 7.28564 64.7856 7.28564H14.7856ZM67.2856 67.2856V62.2856H12.2856V67.2856H67.2856Z" fill="black"/>
</svg>
