<svg width="80" height="80" viewBox="0 0 80 80" fill="none" xmlns="http://www.w3.org/2000/svg">
<path d="M75 65.0001H70V30.0001C70 28.674 69.4732 27.4022 68.5355 26.4645C67.5979 25.5269 66.3261 25.0001 65 25.0001H45V10.0001C45.0006 9.09465 44.7553 8.20606 44.2903 7.42914C43.8254 6.65222 43.1582 6.01614 42.3599 5.5888C41.5617 5.16145 40.6624 4.95887 39.758 5.00269C38.8537 5.0465 37.9782 5.33506 37.225 5.83758L12.225 22.5001C11.5392 22.9576 10.9772 23.5777 10.589 24.305C10.2008 25.0324 9.99844 25.8444 10 26.6688V65.0001H5C4.33696 65.0001 3.70107 65.2635 3.23223 65.7323C2.76339 66.2012 2.5 66.837 2.5 67.5001C2.5 68.1631 2.76339 68.799 3.23223 69.2679C3.70107 69.7367 4.33696 70.0001 5 70.0001H75C75.663 70.0001 76.2989 69.7367 76.7678 69.2679C77.2366 68.799 77.5 68.1631 77.5 67.5001C77.5 66.837 77.2366 66.2012 76.7678 65.7323C76.2989 65.2635 75.663 65.0001 75 65.0001ZM65 30.0001V65.0001H45V30.0001H65ZM15 26.6688L40 10.0001V65.0001H15V26.6688ZM35 35.0001V40.0001C35 40.6631 34.7366 41.299 34.2678 41.7678C33.7989 42.2367 33.163 42.5001 32.5 42.5001C31.837 42.5001 31.2011 42.2367 30.7322 41.7678C30.2634 41.299 30 40.6631 30 40.0001V35.0001C30 34.337 30.2634 33.7012 30.7322 33.2323C31.2011 32.7635 31.837 32.5001 32.5 32.5001C33.163 32.5001 33.7989 32.7635 34.2678 33.2323C34.7366 33.7012 35 34.337 35 35.0001ZM25 35.0001V40.0001C25 40.6631 24.7366 41.299 24.2678 41.7678C23.7989 42.2367 23.163 42.5001 22.5 42.5001C21.837 42.5001 21.2011 42.2367 20.7322 41.7678C20.2634 41.299 20 40.6631 20 40.0001V35.0001C20 34.337 20.2634 33.7012 20.7322 33.2323C21.2011 32.7635 21.837 32.5001 22.5 32.5001C23.163 32.5001 23.7989 32.7635 24.2678 33.2323C24.7366 33.7012 25 34.337 25 35.0001ZM25 52.5001V57.5001C25 58.1631 24.7366 58.799 24.2678 59.2679C23.7989 59.7367 23.163 60.0001 22.5 60.0001C21.837 60.0001 21.2011 59.7367 20.7322 59.2679C20.2634 58.799 20 58.1631 20 57.5001V52.5001C20 51.837 20.2634 51.2012 20.7322 50.7323C21.2011 50.2635 21.837 50.0001 22.5 50.0001C23.163 50.0001 23.7989 50.2635 24.2678 50.7323C24.7366 51.2012 25 51.837 25 52.5001ZM35 52.5001V57.5001C35 58.1631 34.7366 58.799 34.2678 59.2679C33.7989 59.7367 33.163 60.0001 32.5 60.0001C31.837 60.0001 31.2011 59.7367 30.7322 59.2679C30.2634 58.799 30 58.1631 30 57.5001V52.5001C30 51.837 30.2634 51.2012 30.7322 50.7323C31.2011 50.2635 31.837 50.0001 32.5 50.0001C33.163 50.0001 33.7989 50.2635 34.2678 50.7323C34.7366 51.2012 35 51.837 35 52.5001Z" fill="black"/>
</svg>
