<svg width="80" height="80" viewBox="0 0 80 80" fill="none" xmlns="http://www.w3.org/2000/svg">
<path d="M40.3779 3.71387C41.6402 3.71387 42.664 4.73763 42.664 6V6.57129H53.2353C54.4975 6.57144 55.5204 7.59515 55.5204 8.85742V17.4287C55.5204 18.6909 54.4975 19.7147 53.2353 19.7148H42.664V25.7139L58.4824 33.624C59.6438 34.2048 60.3778 35.3919 60.3779 36.6904V43.1426H69.5214L69.7548 43.1543C70.9072 43.2714 71.8074 44.2455 71.8076 45.4287V70.8564H77.5214C78.7836 70.8567 79.8066 71.8804 79.8066 73.1426C79.8066 74.4048 78.7836 75.4285 77.5214 75.4287H3.23529C1.97293 75.4287 0.949158 74.4049 0.949158 73.1426C0.949158 71.8802 1.97293 70.8564 3.23529 70.8564H8.94916V45.4287C8.94934 44.2456 9.84866 43.2715 11.0009 43.1543L11.2353 43.1426H20.3779V36.6904C20.378 35.3919 21.112 34.2048 22.2734 33.624L38.0917 25.7139V6C38.0917 4.73772 39.1156 3.714 40.3779 3.71387ZM13.5204 70H18.663V47.7139H13.5204V70ZM24.9492 37.3965V70H34.664V59.7148C34.664 58.5315 35.5633 57.5576 36.7158 57.4404L36.9501 57.4287H43.8066C45.0688 57.4288 46.0927 58.4526 46.0927 59.7148V70H55.8066V37.3965L40.3779 29.6816L24.9492 37.3965ZM39.2353 70H41.5214V62H39.2353V70ZM62.0927 70H67.2353V47.7139H62.0927V70ZM40.3779 40.2861C43.5335 40.2863 46.0925 42.8444 46.0927 46L46.0849 46.2949C45.9314 49.3137 43.4347 51.7147 40.3779 51.7148L40.0839 51.707C37.065 51.5538 34.6643 49.057 34.664 46C34.6642 42.8444 37.2223 40.2864 40.3779 40.2861ZM40.3779 44.8574C39.747 44.8576 39.2355 45.3692 39.2353 46C39.2356 46.6308 39.747 47.1433 40.3779 47.1436C41.0088 47.1434 41.5212 46.6309 41.5214 46C41.5212 45.3691 41.0088 44.8576 40.3779 44.8574ZM42.664 15.1436H50.9492V11.1436H42.664V15.1436Z" fill="#FAFAFA"/>
</svg>
