<svg width="20" height="20" viewBox="0 0 20 20" fill="none" xmlns="http://www.w3.org/2000/svg">
<path d="M3.33333 15C3.09722 15 2.89944 14.92 2.74 14.76C2.58055 14.6 2.50055 14.4022 2.5 14.1667C2.49944 13.9311 2.57944 13.7333 2.74 13.5733C2.90055 13.4133 3.09833 13.3333 3.33333 13.3333H14.6667C14.9028 13.3333 15.1008 13.4133 15.2608 13.5733C15.4208 13.7333 15.5006 13.9311 15.5 14.1667C15.4994 14.4022 15.4194 14.6003 15.26 14.7608C15.1006 14.9214 14.9028 15.0011 14.6667 15H3.33333ZM3.33333 10.8333C3.09722 10.8333 2.89944 10.7533 2.74 10.5933C2.58055 10.4333 2.50055 10.2356 2.5 10C2.49944 9.76444 2.57944 9.56667 2.74 9.40667C2.90055 9.24667 3.09833 9.16667 3.33333 9.16667H9.66667C9.90278 9.16667 10.1008 9.24667 10.2608 9.40667C10.4208 9.56667 10.5006 9.76444 10.5 10C10.4994 10.2356 10.4194 10.4336 10.26 10.5942C10.1006 10.7547 9.90278 10.8344 9.66667 10.8333H3.33333ZM3.33333 6.66667C3.09722 6.66667 2.89944 6.58667 2.74 6.42667C2.58055 6.26667 2.50055 6.06889 2.5 5.83333C2.49944 5.59778 2.57944 5.4 2.74 5.24C2.90055 5.08 3.09833 5 3.33333 5H16.6667C16.9028 5 17.1008 5.08 17.2608 5.24C17.4208 5.4 17.5006 5.59778 17.5 5.83333C17.4994 6.06889 17.4194 6.26694 17.26 6.4275C17.1006 6.58806 16.9028 6.66778 16.6667 6.66667H3.33333Z" fill="#FAFAFA"/>
</svg>
