<svg width="146" height="60" viewBox="0 0 146 60" fill="none" xmlns="http://www.w3.org/2000/svg">
<g clip-path="url(#clip0_446_116)">
<path d="M4.24814 36.0583L1.78809 42.9942C2.32718 42.402 2.95737 41.9351 3.67869 41.5934C4.40759 41.2441 5.17825 41.0505 5.99068 41.0125L4.24814 36.0583ZM0.933908 45.4315H0.432787L0.489732 45.2607L0.5239 45.181L0.580845 45.0215V45.0101L3.99758 35.3635L4.13425 34.9649H5.84262L9.54408 45.4315H7.56238L6.16151 41.4795C5.00742 41.4947 3.95962 41.8439 3.01812 42.5273C2.07662 43.203 1.41225 44.0838 1.02502 45.1696L0.968075 45.3176L0.933908 45.4201V45.4315ZM15.9514 44.1901V40.147C15.8072 40.0103 15.6477 39.8964 15.4731 39.8053C15.2985 39.7066 15.1428 39.642 15.0061 39.6117C14.8695 39.5737 14.7328 39.5433 14.5961 39.5206C14.4595 39.4902 14.3608 39.4788 14.3 39.4864C14.2393 39.494 14.1937 39.4978 14.1633 39.4978C14.1406 39.4902 14.1064 39.4902 14.0608 39.4978C14.0229 39.4978 13.9394 39.513 13.8103 39.5433C13.6888 39.5661 13.5711 39.6079 13.4572 39.6686C13.3509 39.7294 13.2256 39.8281 13.0814 39.9647C12.9447 40.0938 12.827 40.2533 12.7283 40.4431C12.6296 40.6329 12.5461 40.8873 12.4778 41.2062C12.417 41.525 12.3866 41.8819 12.3866 42.2767C12.3866 42.6716 12.417 43.0246 12.4778 43.3359C12.5461 43.6472 12.6258 43.8978 12.7169 44.0876C12.8156 44.2774 12.9295 44.4407 13.0586 44.5773C13.1953 44.7216 13.3168 44.8241 13.4231 44.8848C13.5369 44.9456 13.6546 44.9911 13.7761 45.0215C13.9052 45.0519 13.9925 45.0671 14.0381 45.0671C14.0836 45.0747 14.1254 45.0747 14.1633 45.0671H14.1975H14.2431C14.8277 45.0671 15.3706 44.8013 15.8717 44.2698L15.9514 44.1901ZM15.9514 39.3839V38.9739H17.8193V49.3266H15.9514V45.181C15.6705 45.3176 15.3668 45.4163 15.0403 45.4771C14.7138 45.5454 14.4595 45.5834 14.2772 45.591H14.0039H13.7875C13.704 45.591 13.5332 45.572 13.275 45.534C13.0244 45.5036 12.7815 45.4505 12.5461 45.3746C12.3183 45.3062 12.0602 45.1923 11.7716 45.0329C11.4907 44.8735 11.2477 44.6798 11.0427 44.4521C10.8453 44.2319 10.6745 43.932 10.5302 43.5523C10.3936 43.1803 10.3252 42.7551 10.3252 42.2767C10.3252 40.781 10.9858 39.7787 12.3069 39.27C12.884 39.0498 13.4496 38.9511 14.0039 38.9739C14.0798 38.9739 14.1785 38.9777 14.3 38.9853C14.4291 38.9853 14.6645 39.0194 15.0061 39.0878C15.3554 39.1485 15.6705 39.2472 15.9514 39.3839ZM23.8925 42.4248V38.9739H25.7717V45.4201H23.8925V45.1468C23.5053 45.329 23.0953 45.4201 22.6625 45.4201C21.8349 45.4201 21.1212 45.1088 20.5213 44.4862C20.2252 44.1749 19.9974 43.8181 19.838 43.4156C19.6633 42.9829 19.576 42.5349 19.576 42.0717V42.0603V38.9625H21.4325V42.0603C21.4325 42.4628 21.4552 42.8234 21.5008 43.1423C21.5463 43.4612 21.6033 43.7156 21.6716 43.9054C21.7476 44.0952 21.8273 44.2584 21.9108 44.3951C22.0019 44.5318 22.0892 44.6267 22.1727 44.6798C22.2639 44.7406 22.3436 44.7861 22.4119 44.8165C22.4878 44.8469 22.5486 44.8621 22.5941 44.8621H22.6625H22.7308C22.7612 44.8621 22.8143 44.8469 22.8903 44.8165C22.9738 44.7937 23.0497 44.7558 23.118 44.7026C23.194 44.6571 23.2775 44.5735 23.3686 44.4521C23.4597 44.3382 23.5394 44.1977 23.6078 44.0307C23.6761 43.8636 23.7369 43.6434 23.79 43.3701C23.8432 43.0892 23.8773 42.7741 23.8925 42.4248ZM31.4381 42.3109C31.0508 41.7566 30.5877 41.4605 30.0486 41.4225C29.8512 41.4074 29.65 41.4643 29.445 41.5934C29.369 41.6389 29.3045 41.6883 29.2514 41.7414C28.94 42.0376 28.7806 42.5007 28.773 43.1309V43.1765V43.2106V43.2334C28.7806 43.4764 28.8072 43.6928 28.8527 43.8826C28.9059 44.0724 28.9628 44.2243 29.0236 44.3382C29.0843 44.4596 29.1678 44.5584 29.2741 44.6343C29.3804 44.7178 29.4639 44.7747 29.5247 44.8051C29.5854 44.8431 29.669 44.8697 29.7753 44.8848C29.8815 44.9076 29.9423 44.919 29.9575 44.919H30.0486C30.0941 44.919 30.1397 44.9152 30.1853 44.9076C30.3903 44.8924 30.5953 44.8317 30.8003 44.7254C31.0129 44.6267 31.1723 44.5318 31.2786 44.4407L31.4381 44.304V42.3109ZM29.4336 40.8645C29.6386 40.8341 29.8436 40.8189 30.0486 40.8189C30.5269 40.8189 30.9825 40.8986 31.4153 41.0581C31.3849 40.7316 31.3242 40.4507 31.2331 40.2153C31.1419 39.9723 31.0394 39.8015 30.9256 39.7028C30.8193 39.6041 30.713 39.5282 30.6067 39.475C30.5004 39.4143 30.413 39.3839 30.3447 39.3839H30.2308C30.208 39.3763 30.1739 39.3763 30.1283 39.3839C30.0828 39.3839 29.9992 39.3991 29.8778 39.4295C29.7563 39.4522 29.6386 39.4902 29.5247 39.5433C29.4184 39.5965 29.3007 39.6838 29.1716 39.8053C29.0501 39.9268 28.9438 40.0748 28.8527 40.2495H27.4746C27.6493 39.9306 27.8733 39.6572 28.1466 39.4295C28.7312 38.9359 29.426 38.6892 30.2308 38.6892C31.0356 38.6892 31.7304 38.9359 32.315 39.4295C32.6111 39.68 32.8465 39.9761 33.0212 40.3178C33.1882 40.6519 33.2831 41.0049 33.3059 41.377V45.4429H31.4267V45.2721C31.0015 45.4391 30.5421 45.5226 30.0486 45.5226C29.2969 45.5226 28.6439 45.3404 28.0897 44.976C27.748 44.7634 27.4822 44.4976 27.2924 44.1787C27.1026 43.8598 27.0077 43.5257 27.0077 43.1765C27.0077 42.6374 27.2127 42.159 27.6227 41.7414C27.6986 41.6579 27.7822 41.582 27.8733 41.5137C27.9416 41.4605 28.0137 41.4112 28.0897 41.3656C28.2643 41.2517 28.4465 41.1568 28.6363 41.0809C28.8945 40.9822 29.1602 40.91 29.4336 40.8645ZM42.2255 41.115H42.3166C42.3622 41.115 42.4381 41.0999 42.5444 41.0695C42.6583 41.0391 42.7684 40.9936 42.8747 40.9328C42.981 40.8721 43.0949 40.7734 43.2164 40.6367C43.3454 40.5 43.4555 40.3368 43.5467 40.147C43.6378 39.9496 43.7137 39.6914 43.7744 39.3725C43.8352 39.046 43.8655 38.6816 43.8655 38.2792C43.8655 36.8213 43.4973 35.9178 42.7608 35.5685C42.5634 35.4698 42.385 35.4281 42.2255 35.4433H40.2552V41.115H42.2255ZM44.6742 35.9102C45.0007 36.2139 45.255 36.567 45.4372 36.9694C45.6271 37.3794 45.722 37.816 45.722 38.2792C45.722 38.7347 45.6271 39.1713 45.4372 39.5889C45.255 39.9913 45.0007 40.3406 44.6742 40.6367C43.9984 41.2669 43.1822 41.582 42.2255 41.582H40.2552V45.4429H38.3874V34.9763H39.663V34.9649H42.2255C43.1822 34.9649 43.9984 35.28 44.6742 35.9102ZM46.6974 45.4315V34.9649H48.5653V45.4315H46.6974ZM54.2497 42.3109C53.8624 41.7566 53.3993 41.4605 52.8602 41.4225C52.6628 41.4074 52.4616 41.4643 52.2566 41.5934C52.1806 41.6389 52.1161 41.6883 52.063 41.7414C51.7517 42.0376 51.5922 42.5007 51.5846 43.1309V43.1765V43.2106V43.2334C51.5922 43.4764 51.6188 43.6928 51.6643 43.8826C51.7175 44.0724 51.7744 44.2243 51.8352 44.3382C51.8959 44.4596 51.9794 44.5584 52.0857 44.6343C52.192 44.7178 52.2756 44.7747 52.3363 44.8051C52.397 44.8431 52.4806 44.8697 52.5869 44.8848C52.6932 44.9076 52.7539 44.919 52.7691 44.919H52.8602C52.9058 44.919 52.9513 44.9152 52.9969 44.9076C53.2019 44.8924 53.4069 44.8317 53.6119 44.7254C53.8245 44.6267 53.9839 44.5318 54.0902 44.4407L54.2497 44.304V42.3109ZM52.2452 40.8645C52.4502 40.8341 52.6552 40.8189 52.8602 40.8189C53.3385 40.8189 53.7941 40.8986 54.2269 41.0581C54.1965 40.7316 54.1358 40.4507 54.0447 40.2153C53.9535 39.9723 53.851 39.8015 53.7372 39.7028C53.6309 39.6041 53.5246 39.5282 53.4183 39.475C53.312 39.4143 53.2246 39.3839 53.1563 39.3839H53.0424C53.0196 39.3763 52.9855 39.3763 52.9399 39.3839C52.8944 39.3839 52.8108 39.3991 52.6894 39.4295C52.5679 39.4522 52.4502 39.4902 52.3363 39.5433C52.23 39.5965 52.1123 39.6838 51.9832 39.8053C51.8617 39.9268 51.7554 40.0748 51.6643 40.2495H50.2863C50.4609 39.9306 50.6849 39.6572 50.9582 39.4295C51.5429 38.9359 52.2376 38.6892 53.0424 38.6892C53.8473 38.6892 54.542 38.9359 55.1266 39.4295C55.4227 39.68 55.6581 39.9761 55.8328 40.3178C55.9998 40.6519 56.0947 41.0049 56.1175 41.377V45.4429H54.2383V45.2721C53.8131 45.4391 53.3537 45.5226 52.8602 45.5226C52.1085 45.5226 51.4555 45.3404 50.9013 44.976C50.5596 44.7634 50.2938 44.4976 50.104 44.1787C49.9142 43.8598 49.8193 43.5257 49.8193 43.1765C49.8193 42.6374 50.0243 42.159 50.4343 41.7414C50.5102 41.6579 50.5938 41.582 50.6849 41.5137C50.7532 41.4605 50.8253 41.4112 50.9013 41.3656C51.0759 41.2517 51.2581 41.1568 51.4479 41.0809C51.7061 40.9822 51.9718 40.91 52.2452 40.8645ZM59.906 41.9806H62.7988C62.7684 40.6139 62.423 39.7825 61.7624 39.4864C61.6105 39.4257 61.4739 39.3991 61.3524 39.4067H61.284C61.2461 39.4067 61.1778 39.4219 61.079 39.4522C60.9803 39.475 60.8854 39.513 60.7943 39.5661C60.7108 39.6193 60.6121 39.7104 60.4982 39.8395C60.3919 39.9609 60.297 40.1128 60.2135 40.295C60.1375 40.4697 60.0692 40.705 60.0085 41.0011C59.9477 41.2897 59.9136 41.6162 59.906 41.9806ZM64.9741 41.9806C64.9817 42.0414 64.9855 42.0983 64.9855 42.1515V42.197V42.254C64.9855 42.3223 64.9817 42.3868 64.9741 42.4476H59.906C59.9439 43.7991 60.2932 44.6191 60.9538 44.9076C61.1056 44.976 61.2385 45.0063 61.3524 44.9987H61.4549C61.5004 44.9987 61.584 44.976 61.7054 44.9304C61.8269 44.8848 61.9408 44.8203 62.0471 44.7368C62.1534 44.6533 62.2635 44.509 62.3774 44.304C62.4989 44.1066 62.5938 43.8712 62.6621 43.5979H64.6552C64.4654 43.9851 64.2073 44.3268 63.8808 44.6229C63.1746 45.2455 62.3318 45.5568 61.3524 45.5568C60.3729 45.5568 59.5339 45.2455 58.8354 44.6229C58.4937 44.3192 58.2242 43.9623 58.0268 43.5523C57.8293 43.1271 57.7306 42.6754 57.7306 42.197C57.7306 41.7263 57.8293 41.2783 58.0268 40.8531C58.2242 40.4431 58.4937 40.0862 58.8354 39.7825C59.5339 39.1523 60.3729 38.8372 61.3524 38.8372C62.3318 38.8372 63.1746 39.1523 63.8808 39.7825C64.2148 40.0862 64.4806 40.4431 64.678 40.8531C64.8526 41.21 64.9513 41.5858 64.9741 41.9806ZM68.3906 41.9237V45.4087H66.5228V38.9625H68.3906V39.27C68.8082 39.0498 69.2676 38.9397 69.7687 38.9397C70.5811 38.9397 71.2531 39.1979 71.7845 39.7142C72.354 40.2684 72.6387 41.0049 72.6387 41.9237V45.4315H70.7595V41.9237V41.8098C70.7519 41.4681 70.7254 41.1606 70.6798 40.8873C70.6342 40.6139 70.5773 40.3975 70.509 40.2381C70.4406 40.071 70.3647 39.9268 70.2812 39.8053C70.1977 39.6838 70.1141 39.6003 70.0306 39.5547C69.9471 39.5016 69.8712 39.4636 69.8028 39.4408C69.7345 39.4105 69.6814 39.3953 69.6434 39.3953L69.5751 39.4067C69.5599 39.3991 69.5371 39.3991 69.5067 39.4067C69.4764 39.4067 69.4194 39.4181 69.3359 39.4408C69.26 39.4636 69.184 39.5016 69.1081 39.5547C69.0322 39.6079 68.9487 39.699 68.8575 39.8281C68.7664 39.9496 68.6867 40.0976 68.6184 40.2722C68.5576 40.4393 68.5045 40.6671 68.4589 40.9556C68.4134 41.2365 68.3906 41.5592 68.3906 41.9237ZM77.3473 44.9873L77.5068 44.9532C77.9396 44.733 78.156 43.913 78.156 42.4931V42.4703H79.6479C79.6479 43.3511 79.424 44.061 78.976 44.6001C78.5052 45.162 77.8978 45.4429 77.1537 45.4429C76.4096 45.4429 75.806 45.162 75.3428 44.6001C74.8949 44.061 74.6709 43.3511 74.6709 42.4703V39.1561H73.68V38.6892H74.6709V34.9535H76.5501V38.6892H79.6479V39.1561H76.5501V42.459H76.5387C76.5387 43.9016 76.7551 44.733 77.1879 44.9532C77.2486 44.9835 77.3018 44.9949 77.3473 44.9873Z" fill="white"/>
<path d="M144.402 25.5927C143.322 23.0356 141.732 20.7265 139.73 18.8071C137.727 16.8877 135.354 15.3985 132.756 14.4308C130.158 13.4631 127.39 13.0374 124.622 13.1798C121.854 13.3222 119.144 14.0297 116.659 15.2588L116.608 15.2371C116.266 15.1018 115.96 14.8898 115.713 14.6175C115.465 14.3451 115.283 14.0197 115.181 13.666C114.945 12.8197 114.749 11.6921 114.541 10.4986C114.177 8.40861 113.765 6.03888 112.976 4.07102C112.018 1.68355 110.69 0.35577 108.913 0.0116614C108.791 -0.0128838 108.665 -0.00718304 108.546 0.0282667C108.427 0.0637165 108.318 0.127839 108.229 0.215044C108.14 0.30225 108.074 0.40989 108.036 0.528582C107.999 0.647274 107.99 0.773413 108.012 0.896004C108.674 4.65028 106.579 7.17408 105.236 8.07312C104.477 8.58295 103.954 8.61132 103.789 8.50591C100.19 6.21118 95.8215 4.35026 91.4883 3.26979C87.3459 2.23595 83.627 1.98661 81.0159 2.56789C80.4635 2.69054 79.0181 2.10621 77.7432 1.5903C75.501 0.682647 73.1829 -0.254908 71.7734 0.48348C71.2483 0.758665 70.9063 1.23555 70.7565 1.90248C70.544 2.8446 70.6275 3.61035 71.0034 4.17897C71.5301 4.97513 72.4893 5.19001 73.1788 5.31721L72.9608 5.41299C72.0375 5.81842 70.7732 6.37234 69.9339 7.06917C69.6561 7.29773 69.3327 7.46397 68.9853 7.5567C67.207 8.03359 66.3095 8.82367 66.3171 9.9011C66.3094 10.1012 66.2311 10.2921 66.0961 10.4398C65.6605 10.9527 65.3002 11.5319 64.983 12.0433C64.5196 12.7893 64.082 13.4937 63.5973 13.6797C60.6727 14.8017 58.8033 16.3084 57.154 17.6372C55.2083 19.2052 53.5276 20.5593 50.6313 20.8355C50.4861 20.8493 50.3496 20.9109 50.243 21.0105C50.1364 21.1101 50.0657 21.2423 50.0419 21.3864C50.0161 21.5288 50.0382 21.6758 50.1049 21.8043C50.1716 21.9327 50.279 22.0353 50.4102 22.0959C52.0023 22.8429 55.6484 22.1907 58.5777 21.6661C59.8273 21.4427 61.3809 21.1644 61.6981 21.244C63.3611 21.9185 64.2004 22.5763 64.9411 23.1571C65.7323 23.7769 66.4153 24.3121 67.757 24.6379C67.8953 24.6713 68.0397 24.6709 68.1778 24.6368C68.316 24.6028 68.4441 24.5361 68.5512 24.4423C68.6573 24.3491 68.7396 24.2317 68.791 24.1001C68.8424 23.9684 68.8615 23.8263 68.8467 23.6857C68.3969 19.4601 67.1398 17.4522 66.5357 16.4893C66.4684 16.3819 66.3956 16.2658 66.3424 16.1731C77.1007 9.33147 83.631 16.4219 88.4063 21.6079C89.3716 22.6564 90.2833 23.6462 91.1266 24.3977C91.152 24.4205 91.1719 24.4486 91.1849 24.4801C91.198 24.5116 91.2038 24.5456 91.202 24.5797C91.2006 24.6117 91.192 24.643 91.1767 24.6712C91.1615 24.6994 91.14 24.7237 91.114 24.7423C89.9595 25.5689 89.8381 26.8364 89.6974 28.3035C89.5026 30.3418 89.2603 32.8783 86.0594 35.4715C85.9456 35.564 85.8518 35.6788 85.784 35.809C85.7161 35.9391 85.6755 36.0817 85.6648 36.2282C85.6537 36.3707 85.6722 36.514 85.7194 36.649C85.7665 36.7839 85.8411 36.9076 85.9385 37.0122C88.6502 39.9414 93.0547 38.6177 96.594 37.5544C98.8094 36.8885 100.902 36.2601 101.531 37.0557C102.088 37.7576 102.878 38.6268 103.818 39.5669C103.46 39.5243 103.094 39.4898 102.72 39.4655C99.8668 39.2932 97.0428 39.7559 94.3265 40.8409C92.7672 41.4632 91.2905 42.276 89.9301 43.2608C89.8788 43.2983 89.8354 43.3455 89.8023 43.3997C89.7692 43.454 89.7472 43.5142 89.7373 43.577C89.7275 43.6398 89.7301 43.7039 89.745 43.7657C89.7599 43.8275 89.7868 43.8858 89.8241 43.9371C89.8615 43.9885 89.9086 44.032 89.9628 44.0652C90.0169 44.0983 90.0771 44.1204 90.1398 44.1303C90.2025 44.1402 90.2665 44.1376 90.3282 44.1226C90.3898 44.1077 90.448 44.0808 90.4993 44.0433C92.5533 42.5447 96.8637 40.0828 102.662 40.4325C107.421 40.7198 110.912 42.8174 112.57 44.0418C114 45.0951 115.559 45.9602 117.209 46.6158C119.573 47.5579 121.999 48.0348 124.444 48.0348C125.042 48.0348 125.642 48.0064 126.244 47.9496C130.763 47.5204 134.149 45.5875 136.193 44.0413C136.296 43.9639 136.363 43.8489 136.381 43.7216C136.399 43.5944 136.365 43.4653 136.288 43.3627C136.211 43.2601 136.096 43.1925 135.969 43.1748C135.842 43.157 135.713 43.1905 135.611 43.2679C133.578 44.8088 131.254 45.9215 128.781 46.5392C129.65 45.527 130.466 44.471 131.228 43.3754C131.61 42.822 132.941 40.8359 133.994 38.5072C135.059 36.1516 135.43 34.3343 135.097 33.1048C134.692 31.6103 133.775 29.8999 132.374 28.0218C131.12 26.3402 129.475 24.5356 127.618 22.8019C124.42 19.8184 120.788 17.2272 117.824 15.7798C120.293 14.6786 122.966 14.1133 125.669 14.1211C136.344 14.1211 145.031 22.8221 145.031 33.5168C145.031 44.2116 136.347 52.9126 125.669 52.9126C120.279 52.9126 116.318 50.9042 112.487 48.9597C106.23 45.7867 100.32 42.7895 89.6038 49.4745C89.4977 49.5437 89.423 49.6518 89.3955 49.7755C89.3681 49.8993 89.3902 50.0289 89.457 50.1366C89.5239 50.2442 89.6302 50.3213 89.7532 50.3513C89.8762 50.3813 90.006 50.3618 90.1148 50.2971C100.373 43.9019 105.786 46.6472 112.052 49.8258C115.984 51.8195 120.05 53.88 125.671 53.88C129.026 53.8786 132.328 53.0459 135.283 51.4562C138.239 49.8665 140.756 47.5691 142.61 44.7688C144.464 41.9684 145.598 38.7521 145.911 35.4063C146.224 32.0605 145.706 28.6892 144.402 25.5927ZM134.164 33.3587C134.746 35.504 132.252 40.1943 130.434 42.824C129.966 43.5011 128.728 45.2256 127.196 46.855C126.856 46.9056 126.508 46.9518 126.153 46.9852C119.775 47.5934 114.93 44.5851 113.143 43.2649C110.861 41.5935 108.25 40.4263 105.484 39.8405C104.137 38.5589 103.005 37.3598 102.29 36.4552C101.253 35.1447 98.9652 35.8319 96.3163 36.628C94.6326 37.1348 92.7243 37.707 90.9865 37.8098C89.0777 37.9229 87.6591 37.447 86.6473 36.3543C86.6403 36.347 86.6351 36.3381 86.6319 36.3285C86.6288 36.3189 86.6278 36.3087 86.629 36.2986C86.6302 36.2845 86.6342 36.2707 86.6408 36.2581C86.6474 36.2456 86.6565 36.2345 86.6675 36.2256C90.1841 33.3765 90.4618 30.4989 90.6602 28.3968C90.7872 27.0644 90.8792 26.1015 91.6755 25.5314C91.8198 25.4285 91.939 25.2942 92.0241 25.1386C92.1092 24.983 92.158 24.8101 92.1668 24.6329C92.177 24.4535 92.1464 24.2742 92.0774 24.1084C92.0085 23.9426 91.9029 23.7946 91.7686 23.6756C90.9592 22.9554 90.0652 21.9824 89.1166 20.9521C86.7166 18.3457 83.7286 15.0977 79.9171 13.4542C77.8302 12.5536 75.6588 12.2151 73.4647 12.4487C70.9574 12.7158 68.319 13.7375 65.623 15.4859C65.3316 15.6749 65.2325 15.9977 65.3574 16.35C65.4232 16.5354 65.5471 16.7326 65.7181 17.0052C66.2777 17.8987 67.4382 19.7475 67.8733 23.6685C66.8079 23.3902 66.2443 22.9483 65.537 22.3944C64.7842 21.804 63.8468 21.0697 62.0533 20.3429C61.5889 20.1544 60.6003 20.3201 58.4077 20.7129C56.6512 21.0271 54.2643 21.4543 52.5447 21.466C54.6897 20.8685 56.1923 19.6572 57.7647 18.3903C59.3583 17.1061 61.1649 15.6506 63.9479 14.5828C64.7357 14.2787 65.2567 13.4415 65.8087 12.5556C66.1229 12.0489 66.4482 11.5259 66.8372 11.0677C67.1227 10.7434 67.2828 10.3274 67.2885 9.89502C67.2834 9.1698 68.3469 8.72941 69.2403 8.49274C69.7219 8.36352 70.1704 8.13268 70.5557 7.81567C71.2903 7.20753 72.4822 6.6825 73.3529 6.30088C74.2236 5.91927 74.5165 5.78954 74.6354 5.50726C74.6777 5.41254 74.6979 5.30942 74.6945 5.20572C74.691 5.10201 74.6641 5.00045 74.6156 4.90874C74.4239 4.55754 74.0085 4.48253 73.4829 4.38776C72.8874 4.27982 72.1458 4.14603 71.8134 3.64431C71.5888 3.30476 71.5518 2.79037 71.7036 2.11635C71.7906 1.73018 71.9566 1.48438 72.2257 1.3435C73.2375 0.812891 75.5354 1.74284 77.3825 2.49036C79.0581 3.16793 80.381 3.7036 81.2274 3.51508C83.6588 2.97383 87.3136 3.22773 91.2556 4.21191C95.4901 5.26856 99.755 7.08488 103.271 9.32539C103.87 9.707 104.782 9.54483 105.774 8.88043C106.802 8.19221 107.731 7.07323 108.322 5.81133C109.012 4.34165 109.249 2.6951 109.014 1.03537C110.304 1.40228 111.308 2.51874 112.076 4.43642C112.828 6.31153 113.231 8.62653 113.587 10.6699C113.799 11.8862 113.999 13.0381 114.248 13.9316C114.391 14.4277 114.645 14.8845 114.992 15.2669C115.338 15.6494 115.767 15.9474 116.246 16.1381C119.282 17.3544 123.389 20.1823 126.959 23.5129C130.816 27.109 133.442 30.6986 134.164 33.3587Z" fill="white"/>
<path d="M135.613 55.2332C133.668 56.7028 130.449 58.5425 126.152 58.9504C119.774 59.5555 114.929 56.5503 113.142 55.2296C111.399 53.9419 107.729 51.7353 102.721 51.4333C99.8668 51.261 97.0433 51.7237 94.327 52.8082C92.7678 53.4306 91.2912 54.2434 89.9306 55.2281C89.8772 55.2647 89.8317 55.3117 89.7968 55.3662C89.7619 55.4208 89.7382 55.4818 89.7272 55.5456C89.7162 55.6095 89.7181 55.6749 89.7329 55.7381C89.7476 55.8012 89.7748 55.8607 89.8129 55.9131C89.8509 55.9655 89.8991 56.0097 89.9546 56.0431C90.01 56.0765 90.0716 56.0984 90.1356 56.1075C90.1997 56.1167 90.2649 56.1128 90.3275 56.0963C90.39 56.0797 90.4486 56.0507 90.4998 56.0111C92.5538 54.512 96.8647 52.0505 102.662 52.3997C107.422 52.6871 110.912 54.7847 112.57 56.0096C114 57.0629 115.56 57.9278 117.21 58.583C119.574 59.5256 121.999 60.002 124.445 60.002C125.043 60.002 125.643 59.9735 126.244 59.9164C130.763 59.4871 134.149 57.5542 136.194 56.008C136.247 55.9705 136.291 55.9227 136.325 55.8676C136.359 55.8124 136.382 55.751 136.392 55.687C136.401 55.6229 136.398 55.5576 136.383 55.4947C136.367 55.4319 136.338 55.3729 136.299 55.3212C136.26 55.2695 136.212 55.2262 136.156 55.1937C136.1 55.1613 136.038 55.1405 135.973 55.1325C135.909 55.1244 135.844 55.1294 135.782 55.147C135.72 55.1647 135.662 55.1947 135.611 55.2352L135.613 55.2332Z" fill="white"/>
<path d="M90.1396 7.29114C84.4091 4.65027 79.482 3.65292 75.4954 4.32796C75.4328 4.33854 75.3729 4.36137 75.3192 4.39513C75.2654 4.4289 75.2188 4.47295 75.182 4.52476C75.1452 4.57657 75.119 4.63514 75.1048 4.69711C75.0906 4.75908 75.0887 4.82324 75.0993 4.88593C75.1099 4.94862 75.1326 5.00862 75.1663 5.06249C75.2001 5.11636 75.244 5.16305 75.2957 5.1999C75.3475 5.23674 75.4059 5.26303 75.4678 5.27724C75.5297 5.29146 75.5937 5.29333 75.6563 5.28274C79.4466 4.64166 84.1814 5.61216 89.7308 8.16839C94.2112 10.2325 99.2182 13.3254 104.613 17.3615C113.818 24.2487 121.044 31.586 121.116 31.659C121.205 31.7506 121.328 31.8027 121.456 31.8038C121.584 31.8049 121.708 31.755 121.799 31.665C121.891 31.5751 121.943 31.4524 121.944 31.324C121.945 31.1956 121.895 31.072 121.805 30.9804C121.733 30.9064 114.463 23.524 105.201 16.5927C99.7504 12.5141 94.6837 9.38468 90.1396 7.29114Z" fill="white"/>
</g>
<defs>
<clipPath id="clip0_446_116">
<rect width="146" height="60" fill="white"/>
</clipPath>
</defs>
</svg>
