<svg xmlns="http://www.w3.org/2000/svg" width="8.919" height="7.266" viewBox="0 0 8.919 7.266">
  <defs>
    <style>
      .cls-1 {
        fill: #fff;
      }
    </style>
  </defs>
  <path id="down_icon" class="cls-1" d="M4.46,7.266H4.444a1.014,1.014,0,0,1-.393-.085,1.047,1.047,0,0,1-.345-.243L3.7,6.93h0a1.081,1.081,0,0,1-.119-.154L.19,1.722A1.123,1.123,0,0,1,.451.2,1.03,1.03,0,0,1,1.919.469L4.46,4.255,7,.469A1.03,1.03,0,0,1,8.468.2,1.123,1.123,0,0,1,8.73,1.722L5.339,6.775a1.08,1.08,0,0,1-.119.154h0l-.007.008a1.047,1.047,0,0,1-.345.243,1.014,1.014,0,0,1-.392.085H4.46Z" transform="translate(0 0)"/>
</svg>
