<svg xmlns="http://www.w3.org/2000/svg" width="48.71" height="48" viewBox="0 0 48.71 48">
  <defs>
    <style>
      .cls-1 {
        fill: #121214;
      }

      .cls-2 {
        fill: #fff;
      }
    </style>
  </defs>
  <g id="insat" transform="translate(0)">
    <path id="패스_14690" data-name="패스 14690" class="cls-1" d="M1190.341,360.189a24.179,24.179,0,0,1-24.355,24h0a24.179,24.179,0,0,1-24.355-24h0a24.179,24.179,0,0,1,24.355-24h0a24.179,24.179,0,0,1,24.355,24Z" transform="translate(-1141.631 -336.189)"/>
    <path id="패스_14691" data-name="패스 14691" class="cls-2" d="M1255.478,430.652h-13.216a6.084,6.084,0,0,0-6.167,6V449.5a6.084,6.084,0,0,0,6.167,6h13.216a6.085,6.085,0,0,0,6.167-6V436.648A6.084,6.084,0,0,0,1255.478,430.652Zm3.965,18.416a4.347,4.347,0,0,1-4.405,4.283H1242.7a4.347,4.347,0,0,1-4.405-4.283V437.076a4.347,4.347,0,0,1,4.405-4.283h12.335a4.347,4.347,0,0,1,4.405,4.283Z" transform="translate(-1224.515 -419.072)"/>
    <path id="패스_14692" data-name="패스 14692" class="cls-2" d="M1293.114,480.962a6.608,6.608,0,1,0,6.608,6.608A6.61,6.61,0,0,0,1293.114,480.962Zm0,11.013a4.405,4.405,0,1,1,4.405-4.405A4.413,4.413,0,0,1,1293.114,491.975Z" transform="translate(-1268.746 -463.57)"/>
    <circle id="타원_12" data-name="타원 12" class="cls-2" cx="1.322" cy="1.322" r="1.322" transform="translate(30.094 15.738)"/>
  </g>
</svg>
