<svg width="146" height="46" viewBox="0 0 146 46" fill="none" xmlns="http://www.w3.org/2000/svg">
<path d="M27.2865 5.19595C25.2843 5.08947 23.2765 5.18665 21.2944 5.48596C20.628 5.56506 19.9777 5.74433 19.3219 5.87088C18.6662 5.99743 18.0212 6.20308 17.3974 6.43508C16.1255 6.85567 14.8987 7.39967 13.735 8.05914C11.4085 9.36666 9.34778 11.0902 7.6577 13.1422C6.8154 14.1587 6.06107 15.2434 5.40269 16.385C5.08283 16.9492 4.80028 17.524 4.50175 18.1093C6.79941 8.01168 22.7658 2.60696 27.2865 5.19595Z" fill="black"/>
<path d="M24.06 11.4075C23.2551 11.3337 22.4607 11.2493 21.6398 11.2229L20.0724 11.2493C19.8112 11.2493 19.5393 11.2493 19.2941 11.2493L18.5158 11.3442L16.9645 11.5393L15.4611 11.9348C14.9523 12.0448 14.4532 12.1947 13.9684 12.383C13.4731 12.5299 12.9871 12.706 12.5131 12.9103C10.6068 13.725 8.84764 14.8417 7.30469 16.2164C6.15787 17.21 5.13749 18.3379 4.26602 19.5752V19.533C5.16863 17.6681 6.41418 15.9855 7.93908 14.5712C9.55538 13.0477 11.4164 11.8004 13.446 10.8802C14.4647 10.4448 15.5141 10.0835 16.586 9.79924L17.391 9.57778L17.7908 9.47233L18.2013 9.40378L19.8432 9.13486C20.3902 9.04773 20.9421 8.99489 21.4958 8.97667L23.1591 8.87649H24.2253C24.096 9.7138 24.0407 10.5607 24.06 11.4075Z" fill="black"/>
<path d="M28.0212 6.26621C27.5627 6.7935 25.6436 7.01496 24.7266 7.91663C24.1935 7.91663 23.6604 7.91663 23.1273 7.91663L21.4214 8.08009C20.8514 8.12582 20.2851 8.20861 19.7261 8.32791L18.0469 8.6601L17.5937 8.77083L17.1833 8.89738L16.3676 9.14521C15.2736 9.48009 14.2048 9.89063 13.169 10.3738C11.1275 11.3853 9.27012 12.7253 7.67275 14.339L7.47017 14.5605C7.35289 14.6765 7.24094 14.7925 7.13432 14.9138C6.47514 15.6153 5.88599 16.3781 5.37509 17.1917L5.24714 17.392C5.1885 17.4922 5.12986 17.5871 5.07655 17.6873C4.79373 18.1636 4.54091 18.6566 4.31955 19.1637C4.31955 19.053 4.3462 18.9423 4.3622 18.8315C4.37819 18.7208 4.52213 18.4888 4.60742 18.3042L4.74603 18.0353C4.78868 17.9404 4.84199 17.8455 4.8953 17.7506C4.94861 17.6557 5.00192 17.5502 5.06056 17.45C5.23648 17.1284 5.42307 16.812 5.59366 16.4956C5.70561 16.3164 5.81756 16.1371 5.94017 15.9683C6.06279 15.7996 6.14275 15.6572 6.24937 15.5043L6.28669 15.4463C6.4093 15.267 6.53725 15.093 6.66519 14.919C6.68526 14.887 6.70848 14.857 6.73449 14.8294C6.84645 14.6712 6.96373 14.5183 7.08101 14.3707C7.19829 14.223 7.19296 14.2283 7.2516 14.1597L7.36888 14.0121C7.45418 13.9066 7.53948 13.8012 7.6301 13.701C7.72073 13.6008 7.83268 13.4584 7.91265 13.3688C9.62912 11.4083 11.7012 9.78266 14.022 8.57574C15.1606 7.97149 16.3571 7.48047 17.5937 7.10987C18.2068 6.89896 18.8465 6.77768 19.4756 6.61422C20.1047 6.45076 20.7444 6.35585 21.3948 6.29785C23.5948 6.03258 25.8186 6.02196 28.0212 6.26621Z" fill="black"/>
<path d="M38.3855 12.7786C32.852 12.304 30.6129 20.4506 29.3228 25.0381C27.5636 24.2471 22.8457 24.168 20.2601 23.8517C17.6746 23.5353 17.3067 21.0834 16.667 21.1625C16.2619 21.2099 16.3045 22.6969 16.8643 24.0099C17.8582 24.514 18.9061 24.9066 19.9882 25.1804C20.6609 25.348 21.3524 25.4295 22.046 25.423C22.7604 25.423 23.48 25.423 24.1784 25.3808C24.8768 25.3386 25.6178 25.3123 26.3535 25.3017C27.0902 25.289 27.8248 25.3831 28.5338 25.5812C28.5454 25.5842 28.5563 25.5895 28.5658 25.5968C28.5753 25.604 28.5833 25.613 28.5892 25.6233C28.5952 25.6336 28.599 25.645 28.6005 25.6568C28.6019 25.6685 28.601 25.6805 28.5978 25.6919C28.5927 25.7138 28.5794 25.733 28.5607 25.7457C28.5419 25.7584 28.519 25.7637 28.4965 25.7605C27.0785 25.4968 25.6711 25.8079 24.2317 25.945C23.5067 26.0136 22.7817 26.0768 22.0567 26.119C21.303 26.1641 20.5466 26.111 19.807 25.9608C19.1172 25.8211 18.4384 25.6326 17.7759 25.3966C17.9635 25.5748 18.1796 25.7209 18.4156 25.829C19.367 26.3388 20.222 27.0078 20.9425 27.8063L21.8594 27.5058L23.9918 26.7465C24.7109 26.484 25.4486 26.2743 26.1989 26.119C26.9549 25.9841 27.725 25.9434 28.4912 25.9977C28.5148 26.0003 28.5365 26.0115 28.5523 26.029C28.568 26.0465 28.5766 26.0692 28.5765 26.0926C28.5751 26.1155 28.565 26.137 28.5481 26.1527C28.5313 26.1683 28.509 26.1771 28.4859 26.177C27.742 26.1969 27.003 26.303 26.2842 26.4934C25.5707 26.6879 24.8724 26.9329 24.1944 27.2263L22.11 28.0964L21.5076 28.3389C22.2113 29.114 22.6964 29.7626 22.6964 29.7626C19.3082 30.5244 15.7966 30.5783 12.3862 29.9208C7.44439 28.94 7.48704 23.066 7.89219 19.9023C7.41868 20.5673 7.03849 21.2928 6.76202 22.0589C6.41627 22.9757 6.30457 23.9628 6.43683 24.9326C6.59947 25.9098 7.05011 26.8178 7.73226 27.5427C8.42958 28.287 9.25207 28.906 10.1632 29.3724C10.1906 29.3935 10.2098 29.4233 10.2173 29.4569C10.2249 29.4904 10.2204 29.5255 10.2046 29.5561C10.1888 29.5867 10.1627 29.6109 10.1309 29.6245C10.099 29.6382 10.0633 29.6404 10.0299 29.6308C9.04671 29.2001 8.14521 28.6062 7.36442 27.8749C6.56784 27.1128 6.01223 26.1383 5.76512 25.0697C5.54972 23.9865 5.60647 22.8675 5.93038 21.8111C6.14136 21.088 6.43467 20.3911 6.80467 19.7335C6.66073 19.7863 6.51679 19.839 6.37286 19.9023C5.7363 20.7645 5.19982 21.6949 4.77355 22.6758C4.31527 23.6677 4.0893 24.7492 4.11251 25.8395C4.14111 26.3748 4.2859 26.8976 4.53703 27.3726C4.78816 27.8475 5.13974 28.2634 5.56787 28.592C6.49385 29.2442 7.54976 29.6936 8.66519 29.9102C8.68384 29.9145 8.70144 29.9225 8.71694 29.9336C8.73245 29.9448 8.74555 29.9589 8.75548 29.9751C8.76541 29.9913 8.77197 30.0093 8.77477 30.028C8.77758 30.0468 8.77657 30.0659 8.77181 30.0842C8.76294 30.1196 8.74115 30.1505 8.71064 30.1709C8.68013 30.1914 8.64305 30.1999 8.60655 30.195C7.42272 30.0374 6.28767 29.6272 5.28 28.9927C4.76627 28.6426 4.33536 28.1864 4.01694 27.6557C3.69852 27.1251 3.50014 26.5324 3.43547 25.9186C3.33653 24.7093 3.51889 23.4936 3.96857 22.3647C4.16912 21.8113 4.40413 21.2706 4.67227 20.7459L4.26711 20.9938C4.08585 21.115 3.90993 21.231 3.73401 21.3629C3.13855 22.3743 2.68142 23.4595 2.3746 24.5899C1.99475 25.7663 2.02668 27.035 2.46523 28.1913C2.7584 28.7336 3.16638 29.207 3.66133 29.5791C4.15629 29.9513 4.72658 30.2135 5.33331 30.3479C6.59392 30.6857 7.89821 30.8367 9.20362 30.7961C9.22252 30.7961 9.24124 30.7998 9.2587 30.8069C9.27616 30.8141 9.29203 30.8246 9.3054 30.8378C9.31876 30.851 9.32937 30.8667 9.3366 30.884C9.34383 30.9012 9.34756 30.9197 9.34756 30.9384C9.34765 30.9758 9.3334 31.0119 9.30767 31.0393C9.28194 31.0667 9.24666 31.0834 9.20895 31.0861C7.86629 31.192 6.51517 31.0996 5.20003 30.8119C4.5234 30.6561 3.87938 30.3849 3.29687 30.0104C2.68992 29.6283 2.19679 29.0932 1.86816 28.4602C1.29111 27.173 1.17454 25.7299 1.53763 24.3684C1.63118 23.9375 1.74683 23.5116 1.88415 23.0924C1.55531 23.4876 1.24748 23.8994 0.961886 24.3262C0.954445 24.3299 0.946229 24.3319 0.937897 24.3319C0.929564 24.3319 0.921348 24.3299 0.913907 24.3262C0.906544 24.3163 0.902574 24.3043 0.902574 24.292C0.902574 24.2796 0.906544 24.2676 0.913907 24.2577C1.24115 23.6913 1.61374 23.1517 2.02809 22.6442C2.10805 22.544 2.19335 22.4438 2.28931 22.3436C2.67623 21.9089 3.10076 21.5084 3.55809 21.1467C3.58024 21.1226 3.6053 21.1014 3.63272 21.0834C3.74467 20.9832 3.85662 20.8883 3.9739 20.7987L4.01122 20.767C4.35146 20.4986 4.70748 20.2503 5.07742 20.0235C5.38413 19.8284 5.70283 19.6523 6.03167 19.4963L6.52745 19.2642C6.78334 19.1588 7.06056 19.0639 7.30045 18.9848C7.57601 18.8914 7.85736 18.8157 8.14275 18.758L8.27602 18.7317C9.91264 18.2044 12.1517 18.8582 13.767 18.3995C14.9344 18.0673 15.0571 17.0074 15.2916 15.763C14.5324 15.8099 13.7783 15.9175 13.0366 16.0847C12.5035 16.2112 11.9704 16.3536 11.4107 16.5171C10.4295 16.8712 9.46847 17.2778 8.53191 17.7351C7.73759 18.1253 6.93261 18.5419 6.19693 19.0006C5.90906 19.1693 5.63185 19.3486 5.3493 19.5279C4.84819 19.8548 4.35774 20.2028 3.88861 20.5825C3.80331 20.6457 3.71802 20.709 3.63805 20.7776C3.55809 20.8461 3.40882 20.9621 3.29687 21.057C2.90538 21.4245 2.53518 21.8136 2.18802 22.2223C0.695336 24.0099 -0.781352 26.699 0.471434 29.1509C2.19868 32.4992 6.93261 31.6819 11.9864 30.9701C14.2254 34.2867 23.2561 36.243 25.6551 36.5014C24.7447 36.5214 23.844 36.6907 22.9896 37.0023C23.1815 37.0339 23.3734 37.055 23.5653 37.0761C24.5216 37.1692 25.4853 37.1569 26.4388 37.0392C27.3986 36.9073 28.3431 36.683 29.2589 36.3695C29.2918 36.3588 29.3277 36.3611 29.3589 36.3762C29.3901 36.3912 29.4142 36.4176 29.426 36.4499C29.4378 36.4821 29.4364 36.5177 29.4221 36.549C29.4078 36.5802 29.3818 36.6048 29.3495 36.6174C28.4341 37.0032 27.4823 37.2982 26.5081 37.4979C25.5232 37.687 24.5202 37.7683 23.5174 37.7405C22.8822 37.7195 22.2495 37.6507 21.6249 37.5348C20.7491 37.9083 19.9545 38.4454 19.2845 39.1167C20.8752 39.4347 22.51 39.474 24.1144 39.2327C26.9463 38.8228 29.6124 37.66 31.8284 35.8686C31.8404 35.856 31.8548 35.8459 31.8709 35.8391C31.8869 35.8322 31.9042 35.8287 31.9217 35.8287C31.9392 35.8287 31.9565 35.8322 31.9725 35.8391C31.9886 35.8459 32.003 35.856 32.015 35.8686C32.0269 35.8804 32.0364 35.8943 32.0428 35.9097C32.0493 35.9251 32.0526 35.9416 32.0526 35.9582C32.0526 35.9749 32.0493 35.9914 32.0428 36.0068C32.0364 36.0222 32.0269 36.0361 32.015 36.0479C29.8097 38.0092 27.1029 39.3351 24.1891 39.8813C22.7323 40.1644 21.2411 40.2319 19.7643 40.0816C19.2259 40.0267 18.6916 39.9369 18.165 39.8127C16.5391 40.4666 14.4333 40.0342 14.2894 40.92C14.1295 42.0273 25.3992 41.3155 28.7577 39.4964C32.1163 37.6772 31.7964 36.1006 34.9151 34.2762C43.7165 28.1227 44.0417 13.269 38.3855 12.7786ZM33.9821 18.8371C33.6889 19.4172 33.2145 19.7757 32.9159 19.6281C32.6174 19.4804 32.6067 18.8951 32.9159 18.3099C33.2251 17.7246 33.6836 17.3713 33.9821 17.5189C34.2807 17.6666 34.27 18.2624 33.9821 18.8371Z" fill="black"/>
<path d="M23.8053 12.4199C23.5507 12.822 23.1564 13.1183 22.6964 13.253C20.564 14.0439 16.5445 12.3039 15.7661 14.123C15.6721 14.3357 15.592 14.5541 15.5262 14.7769C14.6232 14.8712 13.731 15.0477 12.8607 15.3041C11.5855 15.6676 10.3498 16.155 9.17168 16.7595C8.00301 17.3601 6.88206 18.0476 5.81848 18.8159C5.28538 19.1955 4.78427 19.5963 4.29382 20.0181V19.9021C6.44816 17.004 9.38642 14.7667 12.7701 13.4481C13.221 13.2688 13.682 13.1156 14.1508 12.9893C14.6273 12.8276 15.1156 12.7024 15.6115 12.615L17.0882 12.3302L18.5916 12.2037L19.3379 12.1404C19.5885 12.1404 19.8444 12.1404 20.0949 12.1404L21.5983 12.1773C22.3393 12.2142 23.0696 12.3197 23.8053 12.4199Z" fill="black"/>
<path d="M49.1698 29.4423C49.0124 29.9933 48.6357 30.19 48.0398 30.0326C47.7474 29.9539 47.545 29.8133 47.4326 29.6109C47.3202 29.4086 47.3033 29.1837 47.382 28.9363L49.9794 20.1995C50.2156 19.4236 50.5473 18.8277 50.9746 18.4116C51.4018 17.9956 51.9697 17.7876 52.6781 17.7876C53.3865 17.7876 53.9543 17.9956 54.3816 18.4116C54.8201 18.8277 55.1518 19.4236 55.3767 20.1995L57.9741 28.9363C58.0416 29.1837 58.0191 29.4086 57.9067 29.6109C57.8055 29.8133 57.6087 29.9539 57.3163 30.0326C56.7091 30.19 56.3325 29.9933 56.1863 29.4423L55.2418 26.2714H50.0975L49.1698 29.4423ZM52.6781 19.6092C52.4532 19.6092 52.2676 19.6991 52.1215 19.879C51.9753 20.0589 51.8347 20.385 51.6998 20.8573L50.5698 24.686H54.7695L53.6226 20.8573C53.4877 20.385 53.3527 20.0589 53.2178 19.879C53.0941 19.6991 52.9142 19.6092 52.6781 19.6092ZM58.6036 25.7654C58.6036 25.1582 58.7104 24.5848 58.924 24.045C59.1377 23.4941 59.4413 23.0162 59.8348 22.6114C60.2284 22.1953 60.7063 21.8636 61.2685 21.6163C61.8307 21.3689 62.4604 21.2452 63.1575 21.2452C63.8434 21.2452 64.4675 21.3689 65.0297 21.6163C65.5919 21.8524 66.0698 22.1729 66.4633 22.5776C66.8569 22.9824 67.1605 23.4547 67.3741 23.9944C67.5878 24.5229 67.6946 25.0795 67.6946 25.6642V33.1023C67.6946 33.3609 67.6103 33.5689 67.4416 33.7264C67.2842 33.895 67.0537 33.9794 66.7501 33.9794C66.4465 33.9794 66.216 33.895 66.0585 33.7264C65.9124 33.5689 65.8393 33.3609 65.8393 33.1023V28.8688C65.6031 29.2399 65.2433 29.566 64.7598 29.8471C64.2763 30.1282 63.6635 30.2687 62.9214 30.2687C62.2917 30.2687 61.7126 30.1507 61.1841 29.9145C60.6557 29.6672 60.2003 29.3411 59.818 28.9363C59.4357 28.5203 59.1377 28.0424 58.924 27.5026C58.7104 26.9517 58.6036 26.3726 58.6036 25.7654ZM60.4589 25.7654C60.4589 26.1814 60.5207 26.5694 60.6444 26.9292C60.7793 27.2778 60.9593 27.587 61.1841 27.8568C61.4203 28.1155 61.7014 28.3179 62.0275 28.464C62.3648 28.6102 62.7359 28.6833 63.1406 28.6833C63.5117 28.6833 63.8603 28.6158 64.1864 28.4809C64.5237 28.346 64.8104 28.1548 65.0466 27.9074C65.2939 27.6488 65.4907 27.3396 65.6369 26.9798C65.7831 26.62 65.8561 26.2152 65.8561 25.7654C65.8561 25.3156 65.7831 24.9108 65.6369 24.551C65.5019 24.1912 65.3108 23.8876 65.0634 23.6402C64.816 23.3816 64.5293 23.1848 64.2032 23.0499C63.8772 22.9037 63.5286 22.8306 63.1575 22.8306C62.7527 22.8306 62.3817 22.9094 62.0443 23.0668C61.7182 23.213 61.4371 23.4153 61.201 23.674C60.9649 23.9326 60.7793 24.2418 60.6444 24.6016C60.5207 24.9614 60.4589 25.3494 60.4589 25.7654ZM75.7512 22.2909C75.7512 22.0323 75.8299 21.8243 75.9873 21.6669C76.1448 21.4982 76.3753 21.4139 76.6789 21.4139C76.9825 21.4139 77.213 21.4982 77.3704 21.6669C77.5278 21.8243 77.6065 22.0323 77.6065 22.2909V26.3726C77.6065 26.991 77.5109 27.542 77.3198 28.0255C77.1399 28.509 76.8756 28.9194 76.5271 29.2568C76.1785 29.5828 75.7624 29.8302 75.2789 29.9989C74.7954 30.1788 74.2557 30.2687 73.6598 30.2687C73.0638 30.2687 72.5241 30.1788 72.0406 29.9989C71.5571 29.8302 71.141 29.5828 70.7925 29.2568C70.4439 28.9194 70.174 28.509 69.9829 28.0255C69.803 27.542 69.713 26.991 69.713 26.3726V22.2909C69.713 22.0323 69.7917 21.8243 69.9492 21.6669C70.1066 21.4982 70.3371 21.4139 70.6407 21.4139C70.9443 21.4139 71.1748 21.4982 71.3322 21.6669C71.4896 21.8243 71.5683 22.0323 71.5683 22.2909V26.4063C71.5683 27.1147 71.7426 27.6713 72.0912 28.0761C72.451 28.4809 72.9739 28.6833 73.6598 28.6833C74.3457 28.6833 74.8629 28.4809 75.2115 28.0761C75.5713 27.6713 75.7512 27.1147 75.7512 26.4063V22.2909ZM79.2913 25.7654C79.2913 25.1582 79.3981 24.5848 79.6118 24.045C79.8254 23.4941 80.129 23.0162 80.5226 22.6114C80.9161 22.1953 81.394 21.8636 81.9562 21.6163C82.5184 21.3689 83.1481 21.2452 83.8452 21.2452C84.5311 21.2452 85.1552 21.3689 85.7174 21.6163C86.2796 21.8524 86.7575 22.1729 87.1511 22.5776C87.5446 22.9824 87.8482 23.4547 88.0618 23.9944C88.2755 24.5229 88.3823 25.0795 88.3823 25.6642V29.223C88.3823 29.4816 88.298 29.6953 88.1293 29.8639C87.9719 30.0214 87.7414 30.1001 87.4378 30.1001C87.1342 30.1001 86.9037 30.0214 86.7463 29.8639C86.6001 29.6953 86.527 29.4816 86.527 29.223V28.8688C86.2909 29.2399 85.9311 29.566 85.4476 29.8471C84.964 30.1282 84.3512 30.2687 83.6091 30.2687C82.9794 30.2687 82.4004 30.1507 81.8719 29.9145C81.3434 29.6672 80.888 29.3411 80.5057 28.9363C80.1234 28.5203 79.8254 28.0424 79.6118 27.5026C79.3981 26.9517 79.2913 26.3726 79.2913 25.7654ZM81.1466 25.7654C81.1466 26.1814 81.2085 26.5694 81.3321 26.9292C81.4671 27.2778 81.647 27.587 81.8719 27.8568C82.108 28.1155 82.3891 28.3179 82.7152 28.464C83.0525 28.6102 83.4236 28.6833 83.8284 28.6833C84.1994 28.6833 84.548 28.6158 84.8741 28.4809C85.2114 28.346 85.4982 28.1548 85.7343 27.9074C85.9817 27.6488 86.1784 27.3396 86.3246 26.9798C86.4708 26.62 86.5439 26.2152 86.5439 25.7654C86.5439 25.3156 86.4708 24.9108 86.3246 24.551C86.1897 24.1912 85.9985 23.8876 85.7511 23.6402C85.5038 23.3816 85.217 23.1848 84.891 23.0499C84.5649 22.9037 84.2163 22.8306 83.8452 22.8306C83.4404 22.8306 83.0694 22.9094 82.7321 23.0668C82.406 23.213 82.1249 23.4153 81.8887 23.674C81.6526 23.9326 81.4671 24.2418 81.3321 24.6016C81.2085 24.9614 81.1466 25.3494 81.1466 25.7654ZM95.5417 19.6935C95.5417 19.12 95.6823 18.6871 95.9634 18.3948C96.2445 18.1024 96.6886 17.9562 97.2958 17.9562H99.8764C100.427 17.9562 100.933 18.0462 101.394 18.2261C101.867 18.406 102.266 18.6646 102.592 19.002C102.918 19.3393 103.171 19.7441 103.351 20.2163C103.542 20.6774 103.638 21.1946 103.638 21.7681C103.638 22.3415 103.542 22.8644 103.351 23.3366C103.171 23.7977 102.918 24.1968 102.592 24.5342C102.266 24.8602 101.867 25.1132 101.394 25.2931C100.933 25.4731 100.427 25.563 99.8764 25.563H97.4982V29.1724C97.4982 29.431 97.4083 29.6503 97.2284 29.8302C97.0597 30.0101 96.8236 30.1001 96.52 30.1001C96.2164 30.1001 95.9746 30.0101 95.7947 29.8302C95.626 29.6503 95.5417 29.431 95.5417 29.1724V19.6935ZM97.4982 23.8764H99.674C100.292 23.8764 100.782 23.6796 101.141 23.286C101.501 22.8812 101.681 22.3753 101.681 21.7681C101.681 21.1609 101.496 20.6549 101.125 20.2501C100.765 19.8453 100.281 19.6429 99.674 19.6429H97.4982V23.8764ZM107.919 28.5484C108.155 28.7058 108.273 28.925 108.273 29.2062C108.273 29.4648 108.183 29.6784 108.003 29.8471C107.823 30.0157 107.615 30.1001 107.379 30.1001C107.233 30.1001 107.093 30.072 106.958 30.0157C106.834 29.9708 106.71 29.9145 106.587 29.8471C106.193 29.6222 105.895 29.313 105.693 28.9194C105.502 28.5146 105.406 27.9862 105.406 27.334V18.3948C105.406 18.1362 105.485 17.9169 105.642 17.737C105.799 17.5458 106.03 17.4503 106.334 17.4503C106.637 17.4503 106.873 17.5458 107.042 17.737C107.211 17.9169 107.295 18.1362 107.295 18.3948V27.0473C107.295 27.5083 107.346 27.84 107.447 28.0424C107.559 28.2448 107.717 28.4134 107.919 28.5484ZM108.956 25.7654C108.956 25.1582 109.063 24.5848 109.276 24.045C109.49 23.4941 109.793 23.0162 110.187 22.6114C110.581 22.1953 111.058 21.8636 111.621 21.6163C112.183 21.3689 112.813 21.2452 113.51 21.2452C114.196 21.2452 114.82 21.3689 115.382 21.6163C115.944 21.8524 116.422 22.1729 116.816 22.5776C117.209 22.9824 117.513 23.4547 117.726 23.9944C117.94 24.5229 118.047 25.0795 118.047 25.6642V29.223C118.047 29.4816 117.962 29.6953 117.794 29.8639C117.636 30.0214 117.406 30.1001 117.102 30.1001C116.799 30.1001 116.568 30.0214 116.411 29.8639C116.265 29.6953 116.191 29.4816 116.191 29.223V28.8688C115.955 29.2399 115.596 29.566 115.112 29.8471C114.629 30.1282 114.016 30.2687 113.274 30.2687C112.644 30.2687 112.065 30.1507 111.536 29.9145C111.008 29.6672 110.552 29.3411 110.17 28.9363C109.788 28.5203 109.49 28.0424 109.276 27.5026C109.063 26.9517 108.956 26.3726 108.956 25.7654ZM110.811 25.7654C110.811 26.1814 110.873 26.5694 110.997 26.9292C111.132 27.2778 111.311 27.587 111.536 27.8568C111.772 28.1155 112.054 28.3179 112.38 28.464C112.717 28.6102 113.088 28.6833 113.493 28.6833C113.864 28.6833 114.212 28.6158 114.539 28.4809C114.876 28.346 115.163 28.1548 115.399 27.9074C115.646 27.6488 115.843 27.3396 115.989 26.9798C116.135 26.62 116.208 26.2152 116.208 25.7654C116.208 25.3156 116.135 24.9108 115.989 24.551C115.854 24.1912 115.663 23.8876 115.416 23.6402C115.168 23.3816 114.882 23.1848 114.555 23.0499C114.229 22.9037 113.881 22.8306 113.51 22.8306C113.105 22.8306 112.734 22.9094 112.397 23.0668C112.07 23.213 111.789 23.4153 111.553 23.674C111.317 23.9326 111.132 24.2418 110.997 24.6016C110.873 24.9614 110.811 25.3494 110.811 25.7654ZM126.087 25.2763C126.087 24.5004 125.912 23.8989 125.564 23.4716C125.215 23.0443 124.698 22.8306 124.012 22.8306C123.326 22.8306 122.803 23.0443 122.443 23.4716C122.095 23.8989 121.921 24.5004 121.921 25.2763V29.223C121.921 29.4816 121.842 29.6953 121.684 29.8639C121.527 30.0214 121.296 30.1001 120.993 30.1001C120.689 30.1001 120.459 30.0214 120.301 29.8639C120.144 29.6953 120.065 29.4816 120.065 29.223V25.1413C120.065 24.5566 120.155 24.0225 120.335 23.539C120.515 23.0555 120.774 22.6451 121.111 22.3078C121.448 21.9705 121.859 21.7118 122.342 21.5319C122.837 21.3408 123.394 21.2452 124.012 21.2452C124.63 21.2452 125.181 21.3408 125.665 21.5319C126.148 21.7118 126.559 21.9705 126.896 22.3078C127.233 22.6451 127.492 23.0555 127.672 23.539C127.852 24.0225 127.942 24.5566 127.942 25.1413V29.223C127.942 29.4816 127.863 29.6953 127.706 29.8639C127.548 30.0214 127.318 30.1001 127.014 30.1001C126.711 30.1001 126.48 30.0214 126.323 29.8639C126.165 29.6953 126.087 29.4816 126.087 29.223V25.2763ZM134.299 28.6833C134.839 28.6833 135.283 28.6158 135.631 28.4809C135.98 28.346 136.295 28.1661 136.576 27.9412C136.778 27.7838 136.981 27.7332 137.183 27.7894C137.386 27.8456 137.549 27.958 137.672 28.1267C137.796 28.2841 137.852 28.4753 137.841 28.7002C137.841 28.925 137.734 29.1218 137.521 29.2905C137.149 29.5941 136.688 29.8302 136.137 29.9989C135.587 30.1788 134.974 30.2687 134.299 30.2687C133.602 30.2687 132.967 30.1563 132.393 29.9314C131.82 29.7065 131.325 29.3973 130.909 29.0038C130.504 28.599 130.189 28.1211 129.964 27.5701C129.739 27.0191 129.627 26.4176 129.627 25.7654C129.627 25.1132 129.745 24.5117 129.981 23.9607C130.217 23.4097 130.538 22.9318 130.943 22.5271C131.347 22.1223 131.814 21.8074 132.343 21.5825C132.871 21.3576 133.422 21.2452 133.995 21.2452C134.569 21.2452 135.114 21.3464 135.631 21.5488C136.16 21.74 136.621 22.0211 137.015 22.3921C137.408 22.7519 137.723 23.1905 137.959 23.7077C138.195 24.2137 138.313 24.7872 138.313 25.4281C138.313 25.7542 138.229 26.0184 138.06 26.2208C137.903 26.412 137.633 26.5075 137.251 26.5075H131.567C131.623 26.8336 131.73 27.1316 131.887 27.4014C132.045 27.6601 132.241 27.885 132.477 28.0761C132.725 28.2673 133 28.4191 133.304 28.5315C133.608 28.6327 133.939 28.6833 134.299 28.6833ZM136.458 24.9895C136.458 24.7534 136.402 24.5117 136.289 24.2643C136.177 24.0057 136.014 23.7695 135.8 23.5559C135.587 23.3423 135.328 23.168 135.024 23.033C134.721 22.8981 134.378 22.8306 133.995 22.8306C133.681 22.8306 133.383 22.8869 133.102 22.9993C132.832 23.1118 132.584 23.2636 132.359 23.4547C132.146 23.6459 131.966 23.8764 131.82 24.1462C131.685 24.4048 131.595 24.686 131.55 24.9895H136.458ZM145.204 29.7121C144.945 29.8921 144.681 30.027 144.411 30.1169C144.141 30.2181 143.827 30.2687 143.467 30.2687C142.511 30.2687 141.78 30.0214 141.274 29.5266C140.768 29.0319 140.515 28.3291 140.515 27.4183V23.168H139.554C139.284 23.168 139.081 23.0893 138.947 22.9318C138.812 22.7632 138.744 22.572 138.744 22.3584C138.744 22.156 138.812 21.9761 138.947 21.8187C139.081 21.6612 139.284 21.5825 139.554 21.5825H140.515V19.7778C140.515 19.5192 140.594 19.2999 140.751 19.12C140.909 18.9401 141.139 18.8502 141.443 18.8502C141.746 18.8502 141.977 18.9401 142.134 19.12C142.292 19.2999 142.37 19.5192 142.37 19.7778V21.5825H144.125C144.406 21.5825 144.614 21.6612 144.749 21.8187C144.884 21.9761 144.951 22.156 144.951 22.3584C144.951 22.572 144.884 22.7632 144.749 22.9318C144.614 23.0893 144.406 23.168 144.125 23.168H142.37V27.1485C142.37 27.7332 142.466 28.1379 142.657 28.3628C142.86 28.5765 143.152 28.6833 143.534 28.6833C143.68 28.6833 143.827 28.6664 143.973 28.6327C144.13 28.5877 144.288 28.509 144.445 28.3966C144.647 28.2504 144.839 28.211 145.018 28.2785C145.21 28.3347 145.356 28.4472 145.457 28.6158C145.558 28.7733 145.592 28.9588 145.558 29.1724C145.536 29.3861 145.418 29.566 145.204 29.7121Z" fill="black"/>
</svg>
