<svg width="20" height="20" viewBox="0 0 20 20" fill="none" xmlns="http://www.w3.org/2000/svg">
<path d="M17.0685 8.02128C17.7169 8.39218 18.2427 8.9425 18.5817 9.60512C18.9206 10.2677 19.0582 11.014 18.9775 11.753C18.8969 12.4919 18.6015 13.1916 18.1274 13.7666C17.6534 14.3417 17.0211 14.7673 16.3077 14.9915C16.0556 16.1281 15.4202 17.145 14.5069 17.874C13.5936 18.603 12.457 19.0002 11.2854 19H9.35768C9.18726 19 9.02382 18.9328 8.90332 18.813C8.78281 18.6933 8.71511 18.531 8.71511 18.3617C8.71511 18.1924 8.78281 18.0301 8.90332 17.9104C9.02382 17.7907 9.18726 17.7234 9.35768 17.7234H11.2854C12.083 17.7236 12.861 17.4782 13.5124 17.021C14.1637 16.5637 14.6563 15.9171 14.9223 15.1702H14.4982C14.3278 15.1702 14.1644 15.103 14.0439 14.9833C13.9234 14.8636 13.8557 14.7012 13.8557 14.5319V8.14894C13.8557 7.97965 13.9234 7.8173 14.0439 7.69759C14.1644 7.57789 14.3278 7.51064 14.4982 7.51064H15.1408C15.349 7.51064 15.5533 7.52723 15.7538 7.55915C15.6091 6.14327 14.9406 4.83113 13.8776 3.87696C12.8146 2.9228 11.4329 2.39454 10.0003 2.39454C8.56757 2.39454 7.1859 2.9228 6.12292 3.87696C5.05995 4.83113 4.39136 6.14327 4.24669 7.55915C4.44941 7.52687 4.6544 7.51065 4.8597 7.51064H5.50227C5.67269 7.51064 5.83613 7.57789 5.95664 7.69759C6.07714 7.8173 6.14484 7.97965 6.14484 8.14894V14.5319C6.14484 14.7012 6.07714 14.8636 5.95664 14.9833C5.83613 15.103 5.67269 15.1702 5.50227 15.1702H4.8597C4.01021 15.1712 3.18418 14.8934 2.50996 14.38C1.83574 13.8666 1.35108 13.1465 1.13129 12.3313C0.911489 11.5162 0.968862 10.6518 1.29449 9.87241C1.62012 9.09301 2.19577 8.44226 2.932 8.02128C2.932 6.15912 3.67669 4.37323 5.00224 3.05648C6.3278 1.73974 8.12563 1 10.0003 1C11.8749 1 13.6727 1.73974 14.9983 3.05648C16.3238 4.37323 17.0685 6.15912 17.0685 8.02128ZM4.8597 8.78723C4.17803 8.78723 3.52427 9.05623 3.04225 9.53505C2.56023 10.0139 2.28943 10.6633 2.28943 11.3404C2.28943 12.0176 2.56023 12.667 3.04225 13.1458C3.52427 13.6246 4.17803 13.8936 4.8597 13.8936V8.78723ZM17.7111 11.3404C17.7111 10.6633 17.4403 10.0139 16.9583 9.53505C16.4762 9.05623 15.8225 8.78723 15.1408 8.78723V13.8936C15.8225 13.8936 16.4762 13.6246 16.9583 13.1458C17.4403 12.667 17.7111 12.0176 17.7111 11.3404Z" fill="#FAFAFA"/>
</svg>
