<svg width="54" height="54" viewBox="0 0 54 54" fill="none" xmlns="http://www.w3.org/2000/svg">
<path d="M46.2568 11.0068C48.8989 11.1405 51 13.3247 51 16V24.126C50.6804 24.0437 50.3453 24 50 24C47.7909 24 46 25.7909 46 28C46 30.2091 47.7909 32 50 32C50.3453 32 50.6804 31.9563 51 31.874V40L50.9932 40.2568C50.8595 42.8989 48.6753 45 46 45H8C5.32472 45 3.14053 42.8989 3.00684 40.2568L3 40V31.874C3.31962 31.9563 3.6547 32 4 32C6.20914 32 8 30.2091 8 28C8 25.7909 6.20914 24 4 24C3.6547 24 3.31962 24.0437 3 24.126V16C3 13.3247 5.10111 11.1405 7.74316 11.0068L8 11H46L46.2568 11.0068ZM8 14C6.89543 14 6 14.8954 6 16V21.291C8.89133 22.1517 11 24.8291 11 28C11 31.1708 8.89119 33.8473 6 34.708V40C6 41.1046 6.89543 42 8 42H46C47.1046 42 48 41.1046 48 40V34.708C45.1088 33.8473 43 31.1708 43 28C43 24.8291 45.1087 22.1517 48 21.291V16C48 14.8954 47.1046 14 46 14H8Z" fill="#FFD633"/>
<path d="M35.5 43.5C35.5 44.3284 36.1716 45 37 45C37.8284 45 38.5 44.3284 38.5 43.5H37H35.5ZM35.5 13.9531C35.5 14.7816 36.1716 15.4531 37 15.4531C37.8284 15.4531 38.5 14.7816 38.5 13.9531H37H35.5ZM38.5 18.7969C38.5 17.9684 37.8284 17.2969 37 17.2969C36.1716 17.2969 35.5 17.9684 35.5 18.7969H37H38.5ZM35.5 21.7031C35.5 22.5316 36.1716 23.2031 37 23.2031C37.8284 23.2031 38.5 22.5316 38.5 21.7031H37H35.5ZM38.5 26.5469C38.5 25.7184 37.8284 25.0469 37 25.0469C36.1716 25.0469 35.5 25.7184 35.5 26.5469H37H38.5ZM35.5 29.4531C35.5 30.2816 36.1716 30.9531 37 30.9531C37.8284 30.9531 38.5 30.2816 38.5 29.4531H37H35.5ZM38.5 34.2969C38.5 33.4684 37.8284 32.7969 37 32.7969C36.1716 32.7969 35.5 33.4684 35.5 34.2969H37H38.5ZM35.5 37.2031C35.5 38.0316 36.1716 38.7031 37 38.7031C37.8284 38.7031 38.5 38.0316 38.5 37.2031H37H35.5ZM38.5 42.0469C38.5 41.2184 37.8284 40.5469 37 40.5469C36.1716 40.5469 35.5 41.2184 35.5 42.0469H37H38.5ZM37 12.5H35.5V13.9531H37H38.5V12.5H37ZM37 18.7969H35.5V21.7031H37H38.5V18.7969H37ZM37 26.5469H35.5V29.4531H37H38.5V26.5469H37ZM37 34.2969H35.5V37.2031H37H38.5V34.2969H37ZM37 42.0469H35.5V43.5H37H38.5V42.0469H37Z" fill="#FFD633"/>
<path d="M16.5 30H29" stroke="#FFD633" stroke-width="3" stroke-linecap="round"/>
<path d="M16.5 35H23.5" stroke="#FFD633" stroke-width="3" stroke-linecap="round"/>
</svg>
