<svg id="youtube" xmlns="http://www.w3.org/2000/svg" width="48.71" height="48" viewBox="0 0 48.71 48">
  <defs>
    <style>
      .cls-1 {
        fill: #121214;
      }

      .cls-2 {
        fill: #fff;
      }
    </style>
  </defs>
  <path id="패스_14693" data-name="패스 14693" class="cls-1" d="M1670.333,360.189a24.179,24.179,0,0,1-24.355,24h0a24.179,24.179,0,0,1-24.355-24h0a24.179,24.179,0,0,1,24.355-24h0a24.179,24.179,0,0,1,24.355,24Z" transform="translate(-1621.623 -336.189)"/>
  <path id="패스_14694" data-name="패스 14694" class="cls-2" d="M1728.793,450.684H1707.8a3.756,3.756,0,0,0-3.756,3.755v13.13a3.755,3.755,0,0,0,3.756,3.755h20.992a3.755,3.755,0,0,0,3.755-3.755v-13.13A3.756,3.756,0,0,0,1728.793,450.684Zm-7.124,11.226-5.837,2.917a1.013,1.013,0,0,1-1.467-.9v-5.835a1.014,1.014,0,0,1,1.467-.906l5.837,2.918A1.013,1.013,0,0,1,1721.669,461.91Z" transform="translate(-1693.942 -437.004)"/>
</svg>
